<svg width="54" height="55" viewBox="0 0 54 55" fill="none" xmlns="http://www.w3.org/2000/svg">
<path d="M6.2325 22.9168C5.265 22.9168 4.5 22.1377 4.5 21.1522V15.8585C4.5 9.64808 9.4725 4.5835 15.57 4.5835H20.7675C21.735 4.5835 22.5 5.36266 22.5 6.34808C22.5 7.3335 21.735 8.11266 20.7675 8.11266H15.57C11.3625 8.11266 7.965 11.596 7.965 15.8585L7.965 21.1522C7.965 22.1377 7.1775 22.9168 6.2325 22.9168Z" fill="#61AF2B"/>
<path d="M47.7675 22.9168C46.8225 22.9168 46.035 22.1377 46.035 21.1522V15.8585C46.035 11.5731 42.615 8.11266 38.43 8.11266H33.2325C32.265 8.11266 31.5 7.31058 31.5 6.34808C31.5 5.38558 32.265 4.5835 33.2325 4.5835H38.43C44.5275 4.5835 49.5 9.64808 49.5 15.8585V21.1522C49.5 22.1377 48.735 22.9168 47.7675 22.9168Z" fill="#61AF2B"/>
<path d="M38.43 50.4164H35.3025C34.3575 50.4164 33.57 49.6373 33.57 48.6519C33.57 47.6894 34.335 46.8873 35.3025 46.8873H38.43C42.6375 46.8873 46.035 43.4039 46.035 39.1414V35.9789C46.035 35.0164 46.8 34.2144 47.7675 34.2144C48.7125 34.2144 49.5 34.9935 49.5 35.9789V39.1414C49.5 45.3519 44.5275 50.4164 38.43 50.4164Z" fill="#61AF2B"/>
<path d="M20.7675 50.4168H15.57C9.4725 50.4168 4.5 45.3522 4.5 39.1418V33.8481C4.5 32.8627 5.265 32.0835 6.2325 32.0835C7.2 32.0835 7.965 32.8627 7.965 33.8481V39.1418C7.965 43.4272 11.385 46.8877 15.57 46.8877H20.7675C21.7125 46.8877 22.5 47.6668 22.5 48.6522C22.5 49.6377 21.735 50.4168 20.7675 50.4168Z" fill="#61AF2B"/>
<path d="M41.535 25.7354H38.475H15.525H12.465C11.4975 25.7354 10.7325 26.5374 10.7325 27.4999C10.7325 28.4624 11.4975 29.2645 12.465 29.2645H15.525H38.475H41.535C42.5025 29.2645 43.2675 28.4624 43.2675 27.4999C43.2675 26.5374 42.5025 25.7354 41.535 25.7354Z" fill="#61AF2B"/>
<path d="M15.525 31.9456V32.7019C15.525 36.506 18.54 39.5769 22.275 39.5769H31.725C35.46 39.5769 38.475 36.506 38.475 32.7019V31.9456C38.475 31.6706 38.2725 31.4644 38.0025 31.4644H15.9975C15.7275 31.4644 15.525 31.6706 15.525 31.9456Z" fill="#61AF2B"/>
<path d="M15.525 23.0541V22.2979C15.525 18.4937 18.54 15.4229 22.275 15.4229L31.725 15.4229C35.46 15.4229 38.475 18.4937 38.475 22.2979V23.0541C38.475 23.3291 38.2725 23.5354 38.0025 23.5354H15.9975C15.7275 23.5354 15.525 23.3291 15.525 23.0541Z" fill="#61AF2B"/>
</svg>
